<?xml version="1.0" standalone="no"?><!DOCTYPE svg PUBLIC "-//W3C//DTD SVG 1.1//EN" "http://www.w3.org/Graphics/SVG/1.1/DTD/svg11.dtd"><svg t="1695091433409" class="icon" viewBox="0 0 1024 1024" version="1.1" xmlns="http://www.w3.org/2000/svg" p-id="1888" width="64" height="64" xmlns:xlink="http://www.w3.org/1999/xlink"><path d="M166.4 315.733333L494.933333 448c4.266667 2.133333 8.533333 2.133333 12.8 2.133333s8.533333 0 12.8-2.133333l330.666667-132.266667c12.8-4.266667 21.333333-17.066667 21.333333-29.866666 0-12.8-8.533333-25.6-21.333333-29.866667L522.666667 121.6c-8.533333-4.266667-17.066667-4.266667-25.6 0L166.4 253.866667c-12.8 4.266667-21.333333 17.066667-21.333333 29.866666 0 14.933333 8.533333 25.6 21.333333 32" fill="#00A4FF" p-id="1889"></path><path d="M503.466667 934.4L23.466667 740.266667c-2.133333-2.133333-27.733333-12.8-19.2-34.133334 6.4-19.2 36.266667-10.666667 36.266666-10.666666l456.533334 185.6s8.533333 4.266667 17.066666 4.266666c6.4 0 19.2-6.4 19.2-6.4l450.133334-183.466666s21.333333-6.4 29.866666 8.533333c12.8 19.2-4.266667 32-12.8 38.4l-469.333333 192s-8.533333 4.266667-12.8 4.266667c-6.4 0-14.933333-4.266667-14.933333-4.266667z" fill="#334966" p-id="1890"></path><path d="M503.466667 753.066667L23.466667 558.933333c-2.133333-2.133333-27.733333-12.8-19.2-34.133333 6.4-19.2 36.266667-10.666667 36.266666-10.666667l456.533334 185.6s8.533333 4.266667 17.066666 4.266667c6.4 0 19.2-6.4 19.2-6.4l450.133334-183.466667s21.333333-6.4 29.866666 8.533334c12.8 19.2-4.266667 32-12.8 38.4l-469.333333 192s-8.533333 4.266667-12.8 4.266666c-6.4 0-14.933333-4.266667-14.933333-4.266666z" fill="#334966" p-id="1891"></path></svg>