<?xml version="1.0" standalone="no"?><!DOCTYPE svg PUBLIC "-//W3C//DTD SVG 1.1//EN" "http://www.w3.org/Graphics/SVG/1.1/DTD/svg11.dtd"><svg t="1689906614659" class="icon" viewBox="0 0 1024 1024" version="1.1" xmlns="http://www.w3.org/2000/svg" p-id="11966" xmlns:xlink="http://www.w3.org/1999/xlink" width="400" height="400"><path d="M255.308 617.064v58.076a20.4 20.4 0 0 0 4.404 12.66l76.528 96.704a13.6 13.6 0 0 0 21.244 0.108l78.176-96.768a20.4 20.4 0 0 0 4.532-12.82v-56.656a199.6 199.6 0 0 1-91.224 21.92 199.56 199.56 0 0 1-93.66-23.224z" fill="#F9CFCF" p-id="11967"></path><path d="M400.856 733.232a91.232 91.232 0 0 1-53.108 17 91.24 91.24 0 0 1-53.104-17H156.836a140.948 140.948 0 0 0-30.088 87.252v28.348h448.8v-28.348a140.928 140.928 0 0 0-30.116-87.252h-144.576z" fill="#E0EBFC" p-id="11968"></path><path d="M533.816 485.212h-14.132c-30.824 0-55.812-24.988-55.812-55.812V274.744c0-30.824 24.988-55.812 55.812-55.812h14.132c30.824 0 55.812 24.988 55.812 55.812v154.656c0 30.824-24.988 55.812-55.812 55.812zM174.824 483.6h-14.132c-30.824 0-55.812-24.988-55.812-55.812V273.132c0-30.824 24.988-55.812 55.812-55.812h14.132c30.824 0 55.812 24.988 55.812 55.812v154.656c0 30.824-24.988 55.812-55.812 55.812z" fill="#4671C6" p-id="11969"></path><path d="M535.036 493.212h-14.128c-35.188 0-63.816-28.624-63.816-63.812V274.744c0-35.184 28.628-63.808 63.816-63.808h14.128c35.188 0 63.812 28.624 63.812 63.808v154.656c0 35.184-28.624 63.812-63.812 63.812z m-14.128-266.28c-26.364 0-47.816 21.444-47.816 47.808v154.656c0 26.364 21.448 47.812 47.816 47.812h14.128c26.364 0 47.812-21.448 47.812-47.812V274.744c0-26.364-21.448-47.808-47.812-47.808h-14.128zM176.044 491.6h-14.132c-35.184 0-63.812-28.624-63.812-63.812V273.132c0-35.188 28.624-63.812 63.812-63.812h14.132c35.184 0 63.812 28.624 63.812 63.812v154.656c-0.004 35.188-28.628 63.812-63.812 63.812z m-14.132-266.28c-26.364 0-47.812 21.448-47.812 47.812v154.656c0 26.364 21.448 47.812 47.812 47.812h14.132c26.364 0 47.812-21.448 47.812-47.812V273.132c0-26.364-21.448-47.812-47.812-47.812h-14.132z" fill="#3762CC" p-id="11970"></path><path d="M549.616 363.376c-0.428 0-0.844 0.056-1.268 0.064v-18.952c0-110.788-89.812-200.6-200.6-200.6s-200.6 89.812-200.6 200.6v18.952c-0.424-0.008-0.84-0.064-1.268-0.064-33.8 0-61.2 27.4-61.2 61.2 0 33.8 27.4 61.2 61.2 61.2 2.22 0 4.408-0.132 6.568-0.364 20.7 88.744 100.252 154.872 195.3 154.872 95.048 0 174.6-66.128 195.3-154.872 2.16 0.232 4.348 0.364 6.568 0.364 33.8 0 61.2-27.4 61.2-61.2 0-33.8-27.4-61.2-61.2-61.2z" fill="#F9CFCF" p-id="11971"></path><path d="M241.852 432.616a20.4 20.4 0 0 1-20.4-20.4v-34a20.4 20.4 0 1 1 40.8 0v34a20.4 20.4 0 0 1-20.4 20.4zM453.644 432.616a20.4 20.4 0 0 1-20.4-20.4v-34a20.4 20.4 0 1 1 40.8 0v34a20.4 20.4 0 0 1-20.4 20.4zM349.956 543.78c-29.384 0-53.288-21.648-53.288-48.252a8 8 0 0 1 16 0c0 17.784 16.728 32.252 37.288 32.252s37.288-14.468 37.288-32.252a8 8 0 0 1 16 0c0 26.604-23.908 48.252-53.288 48.252z" fill="#3762CC" p-id="11972"></path><path d="M348.964 648.284c-95.196 0-177.092-63.2-201.456-154.512h-0.412c-38.156 0-69.2-31.044-69.2-69.2 0-35.888 27.456-65.48 62.468-68.876V344.48c0-115.02 93.58-208.596 208.6-208.596 115.024 0 208.6 93.58 208.6 208.596v11.216c35.012 3.396 62.468 32.988 62.468 68.876 0 38.156-31.044 69.2-69.204 69.2h-0.412c-24.356 91.312-106.252 154.512-201.452 154.512z m-195.296-170.872a8 8 0 0 1 7.784 6.184c20.42 87.548 97.528 148.692 187.508 148.692 89.984 0 167.088-61.144 187.512-148.692a8.028 8.028 0 0 1 8.636-6.136c2.008 0.212 3.88 0.316 5.72 0.316 29.336 0 53.204-23.864 53.204-53.2 0-29.312-23.836-53.164-53.14-53.2a26.424 26.424 0 0 1-1.18 0.064h-0.148a7.992 7.992 0 0 1-8-8v-18.952c0-106.2-86.4-192.596-192.6-192.596-106.2 0-192.6 86.4-192.6 192.596v18.952a8 8 0 0 1-8.148 8 20.652 20.652 0 0 1-1-0.052h-0.02c-29.448 0-53.3 23.86-53.3 53.188 0 29.336 23.864 53.2 53.2 53.2 1.84 0 3.712-0.104 5.716-0.316 0.288-0.036 0.576-0.048 0.856-0.048z" fill="#3762CC" p-id="11973"></path><path d="M243.068 432.616a20.4 20.4 0 0 1-20.4-20.4v-34a20.4 20.4 0 1 1 40.8 0v34a20.4 20.4 0 0 1-20.4 20.4zM454.864 432.616a20.4 20.4 0 0 1-20.4-20.4v-34a20.4 20.4 0 1 1 40.8 0v34a20.4 20.4 0 0 1-20.4 20.4zM351.172 543.78c-29.384 0-53.288-21.648-53.288-48.252a8 8 0 0 1 16 0c0 17.784 16.728 32.252 37.288 32.252s37.288-14.468 37.288-32.252a8 8 0 0 1 16 0c0 26.604-23.904 48.252-53.288 48.252z" fill="#3762CC" p-id="11974"></path><path d="M518.456 80.896h-34.464c-27.28 0-50.908 16.324-62.688 40.208-1.844 3.736-6.82 3.82-8.796 0.16-10.928-20.256-31.416-34.26-55.216-35.496-145.332-4.184-231.976-39.652-259.528-52.904-4.492-2.16-9.632 1.252-9.632 6.36v142.712c0 52.504 41.284 95.064 92.208 95.064h133.748c39.3 0 73.588-21.892 92.152-54.472 2.292-4.024 7.992-2.952 9.136 1.584 7.024 27.844 31.072 48.36 59.676 48.36h103.368c14.644 0 26.512-12.524 26.512-27.976V172.144c0-50.396-38.72-91.248-86.476-91.248z" fill="#4671C6" p-id="11975"></path><path d="M315.304 285.004H181.556c-55.252 0-100.208-46.236-100.208-103.068V39.228c0-5.236 2.62-10.008 7.008-12.768a14.524 14.524 0 0 1 14.092-0.804C132.192 39.96 216.712 73.68 358.736 77.768c24.4 1.264 46.108 14.192 59.22 34.904 14.232-24.672 39.536-39.776 67.252-39.776h34.464c52.092 0 94.476 44.524 94.476 99.252v72.356c0 19.836-15.484 35.976-34.516 35.976h-103.364c-29.468 0-55.552-19.428-65.512-47.996-21.212 32.564-57.176 52.52-95.452 52.52zM97.348 40.944v140.992c0 48.008 37.776 87.068 84.208 87.068h133.752c34.832 0 67.48-19.324 85.2-50.428 2.624-4.6 7.632-7.12 12.832-6.416 5.34 0.732 9.668 4.656 11.016 10.004 6.288 24.916 27.636 42.316 51.916 42.316h103.364c10.212 0 18.516-8.96 18.516-19.976v-72.36c0-45.904-35.204-83.252-78.476-83.252h-34.464c-23.364 0-44.64 13.696-55.516 35.748a12.948 12.948 0 0 1-11.376 7.316c-4.772 0.124-9.292-2.556-11.636-6.9-10-18.54-28.168-30.244-48.588-31.304-142.124-4.088-228.54-37.6-260.748-52.808z" fill="#3762CC" p-id="11976"></path><path d="M492.732 260.632m-91.8 0a91.8 91.8 0 1 0 183.6 0 91.8 91.8 0 1 0-183.6 0Z" fill="#FFEA92" p-id="11977"></path><path d="M492.732 260.632m-64.6 0a64.6 64.6 0 1 0 129.2 0 64.6 64.6 0 1 0-129.2 0Z" fill="#6BDDDD" p-id="11978"></path><path d="M594.008 228.332h-15.336a91.532 91.532 0 0 1 5.86 32.3 91.52 91.52 0 0 1-7.2 35.7h16.676a10.924 10.924 0 0 0 10.924-10.924V239.256a10.924 10.924 0 0 0-10.924-10.924zM406.792 228.332H99.056a10.924 10.924 0 0 0-10.924 10.924v46.152a10.924 10.924 0 0 0 10.924 10.924h309.076a91.52 91.52 0 0 1-7.2-35.7c0-11.368 2.08-22.248 5.86-32.3z" fill="#E0EBFC" p-id="11979"></path><path d="M493.948 360.432c-55.028 0-99.8-44.768-99.8-99.8s44.768-99.8 99.8-99.8 99.8 44.768 99.8 99.8-44.772 99.8-99.8 99.8z m0-183.6c-46.208 0-83.8 37.592-83.8 83.8s37.592 83.8 83.8 83.8c46.204 0 83.8-37.592 83.8-83.8s-37.596-83.8-83.8-83.8z" fill="#3762CC" p-id="11980"></path><path d="M493.948 333.236c-40.032 0-72.6-32.572-72.6-72.6s32.568-72.596 72.6-72.596 72.6 32.568 72.6 72.596-32.568 72.6-72.6 72.6z m0-129.2c-31.208 0-56.6 25.392-56.6 56.596 0 31.212 25.392 56.6 56.6 56.6s56.6-25.392 56.6-56.6c0-31.208-25.392-56.596-56.6-56.596zM595.224 304.332h-16.676a8 8 0 0 1-7.368-11.116 83.3 83.3 0 0 0 6.568-32.584c0-10.132-1.8-20.056-5.348-29.484a8.008 8.008 0 0 1 7.492-10.816h15.336a18.944 18.944 0 0 1 18.924 18.924v46.152a18.948 18.948 0 0 1-18.928 18.924z m-5.368-16h5.368a2.928 2.928 0 0 0 2.924-2.92V239.256a2.928 2.928 0 0 0-2.924-2.924h-4.464a99.8 99.8 0 0 1 2.988 24.3c0 9.472-1.308 18.752-3.892 27.7zM409.348 304.332h-309.08a18.944 18.944 0 0 1-18.924-18.92V239.256a18.944 18.944 0 0 1 18.924-18.924h307.736c2.624 0 5.084 1.288 6.58 3.444 1.496 2.16 1.832 4.916 0.912 7.372a83.48 83.48 0 0 0-5.348 29.484c0 11.304 2.212 22.268 6.572 32.584a8.008 8.008 0 0 1-7.372 11.116z m-309.076-68a2.928 2.928 0 0 0-2.924 2.924v46.152c0 1.608 1.312 2.92 2.924 2.92H398.04a99.616 99.616 0 0 1-3.892-27.7c0-8.252 1.004-16.388 2.992-24.3H100.272z" fill="#3762CC" p-id="11981"></path><path d="M357.48 784.608a13.6 13.6 0 0 1-21.244-0.108l-76.528-96.704a20.364 20.364 0 0 1-3.892-8.376c-72.332 6.372-129.072 67.076-129.072 141.068v28.348h448.8v-28.348c0-76.264-60.276-138.424-135.784-141.504l-82.28 105.624z" fill="#A4C9FF" p-id="11982"></path><path d="M575.548 856.832h-448.8a8 8 0 0 1-8-8v-28.344c0-75.48 54.732-137.848 128.56-148.148v-55.276c0-2.804 1.472-5.408 3.872-6.856a8.016 8.016 0 0 1 7.872-0.216 192.816 192.816 0 0 0 89.916 22.292c30.844 0 60.308-7.08 87.576-21.04a8 8 0 0 1 11.648 7.12v53.164c76.536 7.196 135.36 71.132 135.36 148.956v28.344a8.008 8.008 0 0 1-8.004 8.004z m-440.8-16h432.8v-20.344a133.252 133.252 0 0 0-128.108-133.516 8 8 0 0 1-7.168-10.796 7.852 7.852 0 0 1-0.084-1.152v-44.012c-26.228 11.468-54.164 17.272-83.224 17.272a209.164 209.164 0 0 1-85.66-18.408v45.256c0 0.72 0.104 1.548 0.332 2.6a8 8 0 0 1-7.12 9.656c-69.42 6.108-121.772 63.328-121.772 133.092v20.352z" fill="#3762CC" p-id="11983"></path><path d="M417.36 778.344a14.6 14.6 0 0 1-14.6-14.6v-6.32a14.6 14.6 0 1 1 29.2 0v6.32a14.6 14.6 0 0 1-14.6 14.6zM510.556 778.344a14.6 14.6 0 0 0 14.6-14.6v-6.32a14.6 14.6 0 1 0-29.2 0v6.32a14.6 14.6 0 0 0 14.6 14.6zM445.304 752.916a14.6 14.6 0 0 1-14.6-14.6v-6.32a14.6 14.6 0 1 1 29.2 0v6.32a14.6 14.6 0 0 1-14.6 14.6zM481.82 752.916a14.6 14.6 0 0 0 14.6-14.6v-6.32a14.6 14.6 0 1 0-29.2 0v6.32a14.6 14.6 0 0 0 14.6 14.6zM492.644 780.12c-1.292-0.304-2.192-1.344-2.192-2.524 0-12.94-11.864-23.432-26.496-23.432-14.632 0-26.496 10.492-26.496 23.432 0 1.184-0.896 2.22-2.192 2.524-11.172 2.64-19.4 11.644-19.4 22.356v0.572c0 12.784 11.716 23.144 26.172 23.144h43.824c14.456 0 26.172-10.364 26.172-23.144v-0.572c0.008-10.712-8.22-19.716-19.392-22.356z" fill="#4671C6" p-id="11984"></path><path d="M755.32 807.796m-184 0a184 184 0 1 0 368 0 184 184 0 1 0-368 0Z" fill="#F9A7A7" p-id="11985"></path><path d="M755.32 807.796m-136 0a136 136 0 1 0 272 0 136 136 0 1 0-272 0Z" fill="#FFEA92" p-id="11986"></path><path d="M743.092 906.528c-26.92-4.064-46.424-20.736-48.632-47.976-0.232-2.836 2.072-5.256 4.92-5.256h21.3a4.96 4.96 0 0 1 4.856 4.188c1.612 9.476 6.356 16.888 14.6 20.8 3.292 1.56 7.104-0.784 7.104-4.428v-51.448c0-2.204-1.468-4.136-3.592-4.736-24.2-6.844-49.4-15.784-49.4-53.588 0-30.12 19.82-51.244 48.876-55.764a4.888 4.888 0 0 0 4.116-4.84v-13.84c0-2.716 2.204-4.92 4.92-4.92h6.564c2.716 0 4.92 2.204 4.92 4.92v13.54c0 2.404 1.736 4.484 4.112 4.84 25.068 3.784 42.396 19.4 46.268 46.244a4.928 4.928 0 0 1-4.888 5.592h-21.096c-2.356 0-4.312-1.688-4.824-3.988-1.576-7.076-5.62-13.492-11.864-17.584-3.308-2.168-7.704 0.116-7.704 4.072v49.472c0 2.224 1.492 4.164 3.64 4.748 24.168 6.576 49.104 15.272 49.104 53.052 0 26.18-17.176 51.58-48.632 56.6a4.896 4.896 0 0 0-4.112 4.836v13.848a4.92 4.92 0 0 1-4.92 4.92h-6.564a4.92 4.92 0 0 1-4.92-4.92v-13.548a4.896 4.896 0 0 0-4.152-4.836z m4.148-123.06v-43.264c0-3.328-3.272-5.796-6.412-4.696-10.4 3.652-17.308 12.504-17.308 26.884 0 13.312 6.716 20.636 16.584 25.48 3.288 1.616 7.136-0.744 7.136-4.404z m16.408 47.32v43.208c0 3.572 3.68 5.92 6.956 4.496 10.784-4.692 16.768-14.948 16.768-27.164 0-13.1-6.732-20.192-16.62-24.96-3.284-1.584-7.104 0.772-7.104 4.42z" fill="#4671C6" p-id="11987"></path><path d="M755.32 999.796c-105.868 0-192-86.132-192-192s86.132-192 192-192 192 86.132 192 192-86.132 192-192 192z m0-368c-97.048 0-176 78.952-176 176s78.952 176 176 176 176-78.952 176-176-78.952-176-176-176z" fill="#3762CC" p-id="11988"></path><path d="M622.556 901.96l226.272-226.272 33.94 33.944-226.272 226.272z" fill="#F9A7A7" p-id="11989"></path></svg>