<?xml version="1.0" standalone="no"?><!DOCTYPE svg PUBLIC "-//W3C//DTD SVG 1.1//EN" "http://www.w3.org/Graphics/SVG/1.1/DTD/svg11.dtd"><svg t="1689906806888" class="icon" viewBox="0 0 1024 1024" version="1.1" xmlns="http://www.w3.org/2000/svg" p-id="19035" width="300" height="300" xmlns:xlink="http://www.w3.org/1999/xlink"><path d="M316.952381 175.542857l121.904762 68.266667-68.268579-121.904762L438.857143 0l-121.904762 68.266667L195.047619 0l68.266667 121.904762L195.047619 243.809524zM902.095238 653.409524L780.190476 585.142857l68.266667 121.904762L780.190476 828.952381l121.904762-68.266667 121.904762 68.266667-68.266667-121.904762L1024 585.142857zM1024 0l-121.904762 68.266667L780.190476 0l68.266667 121.904762L780.190476 243.809524l121.904762-68.266667 121.904762 68.266667-68.266667-121.904762zM653.409524 258.438095c-19.504762-19.504762-48.761905-19.504762-68.266667 0L14.626659 828.952381c-19.504762 19.504762-19.504762 48.761905 0 68.266667l112.152381 112.150468c19.504762 19.504762 48.761905 19.504762 68.266667 0L765.561905 438.857143c19.504762-19.504762 19.504762-48.761905 0-68.266667l-112.152381-112.152381zM599.771429 526.628571l-102.4-102.4 117.028571-117.028571 102.4 102.4-117.028571 117.028571z" p-id="19036" fill="#d4237a"></path></svg>