<?xml version="1.0" standalone="no"?><!DOCTYPE svg PUBLIC "-//W3C//DTD SVG 1.1//EN" "http://www.w3.org/Graphics/SVG/1.1/DTD/svg11.dtd"><svg t="1689906467139" class="icon" viewBox="0 0 1519 1024" version="1.1" xmlns="http://www.w3.org/2000/svg" p-id="2790" width="593.359375" height="400" xmlns:xlink="http://www.w3.org/1999/xlink"><path d="M1340.786881 1023.862356h-178.753232v-80.429778h89.376616v-80.383896H977.682909v80.383896h89.376616v80.429778H446.92896v-80.429778h89.399557v-80.383896H262.57822v80.383896h89.376616v80.429778H178.776172C80.039788 1023.862356 0 947.057195 0 852.289536V171.52694C0 76.782221 80.039788 0 178.776172 0h1162.010709c98.759325 0 178.799113 76.782221 178.799113 171.52694v680.762596c0 94.767659-80.039788 171.572821-178.799113 171.57282z m-89.353675-257.32482h83.779107V686.153639h-83.779107v80.383897z m-5.597509-166.135896h89.376616v-85.77494h-89.376616v85.77494z m-441.377333 166.135896h357.575285V686.153639H804.458364v80.383897z m357.575285-171.503999v-80.406837h-89.376616v80.406837h89.376616z m-357.575285 0h178.799113v-80.406837h-178.799113v80.406837zM715.104689 171.52694H173.178663v595.010596h541.948967V171.52694h-0.022941z m262.57822 0h-173.224545v85.77494h173.224545V171.52694z m357.529404 5.345162H1072.657033v85.77494h262.55528V176.872102z m5.574568 166.181777H804.458364v85.77494h536.328517v-85.77494z m-988.832045 209.034837h178.776172v48.289983h94.974125v80.383897H262.57822v-80.383897h89.376616v-48.289983z m0-69.647692V251.933777h178.776172V482.441024h-178.776172z" fill="#1296db" p-id="2791"></path></svg>